<svg width="320" height="146" viewBox="0 0 320 146" fill="none" xmlns="http://www.w3.org/2000/svg">
<g clip-path="url(#clip0_2_15)">
<path d="M294.195 82.5116C302.118 82.5116 308.541 76.0814 308.541 68.1493C308.541 60.2172 302.118 53.7869 294.195 53.7869C286.272 53.7869 279.849 60.2172 279.849 68.1493C279.849 76.0814 286.272 82.5116 294.195 82.5116Z" fill="#F2F2F2"/>
<path d="M294.195 71.9288C296.28 71.9288 297.97 70.2367 297.97 68.1493C297.97 66.0619 296.28 64.3697 294.195 64.3697C292.11 64.3697 290.419 66.0619 290.419 68.1493C290.419 70.2367 292.11 71.9288 294.195 71.9288Z" fill="#E6E6E6"/>
<path d="M293.505 68.23C295.095 69.5288 295.58 71.5759 295.284 73.5525C294.92 75.7205 293.797 77.6878 292.115 79.1012C290.224 80.784 287.917 81.9211 285.691 83.0855C283.646 84.1304 281.681 85.3247 279.811 86.6589C272.653 91.8675 267.245 99.2839 264.15 107.56C261.06 115.822 260.231 125.2 262.579 133.763C263.741 137.999 266.091 142.57 270.469 144.164C273.959 145.435 278.723 144.616 280.5 141.016C282.409 137.148 279.746 132.8 276.315 130.88C271.869 128.391 266.557 130.21 262.558 132.729C258.155 135.503 254.615 139.483 250.018 141.969C247.949 143.124 245.646 143.796 243.282 143.937C241.11 144.022 238.943 143.687 236.898 142.95C232.656 141.402 229.004 138.565 226.455 134.834C223.535 130.585 222.228 125.376 221.99 120.274C221.456 108.857 225.961 98.1764 229.576 87.5888C231.518 82.0755 232.973 76.4021 233.924 70.6339C234.829 64.8364 235.151 58.9628 234.885 53.1011C234.646 47.9179 234.135 42.4979 231.85 37.764C229.841 33.6015 226.169 30.1947 221.526 29.3358C219.434 28.9246 217.265 29.1739 215.32 30.0495C214.658 30.3519 215.233 31.3295 215.892 31.0285C220 29.1521 224.856 30.9778 227.891 34.0075C231.435 37.5454 232.736 42.77 233.314 47.5908C234.612 59.0157 233.589 70.5855 230.306 81.6042C227.154 92.3201 222.198 102.589 221.054 113.816C220.532 118.939 220.8 124.235 222.436 129.148C223.839 133.523 226.471 137.403 230.016 140.322C233.354 143.024 237.461 144.865 241.784 145.07C246.637 145.3 250.892 143.134 254.657 140.253C258.69 137.167 262.4 133.359 267.285 131.629C269.512 130.84 272.048 130.472 274.334 131.231C276.296 131.902 277.96 133.242 279.035 135.015C280.029 136.669 280.395 138.735 279.489 140.511C278.637 142.181 276.974 143.147 275.173 143.477C273.267 143.815 271.302 143.481 269.614 142.532C267.642 141.404 266.199 139.512 265.188 137.512C263.172 133.525 262.495 128.778 262.392 124.353C262.302 120.03 262.855 115.718 264.033 111.558C266.378 103.143 271.111 95.59 277.658 89.8145C279.307 88.376 281.072 87.0753 282.934 85.9257C284.965 84.6724 287.133 83.6709 289.203 82.4884C291.241 81.3247 293.249 79.9344 294.652 78.0196C295.848 76.3785 296.494 74.4003 296.497 72.3689C296.518 71.4346 296.333 70.5071 295.954 69.6529C295.575 68.7988 295.012 68.0391 294.306 67.4283C293.746 66.9707 292.94 67.7683 293.505 68.23Z" fill="#CCCCCC"/>
<path d="M159.576 134.292C164.592 137.538 170.395 139.359 176.365 139.56C176.258 139.813 176.138 140.061 176.006 140.301C175.311 141.585 174.329 142.691 173.137 143.533C171.725 144.527 170.067 145.115 168.345 145.231C166.622 145.347 164.901 144.987 163.368 144.191C161.836 143.395 160.552 142.193 159.655 140.716C158.759 139.238 158.285 137.543 158.285 135.815V134.292H159.576Z" fill="#3F3D56"/>
<path d="M194.788 134.738V135.815C194.789 137.912 194.091 139.949 192.806 141.606C191.521 143.262 189.722 144.442 187.692 144.96C185.662 145.478 183.518 145.304 181.598 144.466C179.678 143.628 178.091 142.173 177.089 140.331C176.951 140.085 176.826 139.831 176.716 139.572C176.991 139.579 177.263 139.583 177.539 139.583C183.624 139.59 189.594 137.913 194.788 134.738Z" fill="#3F3D56"/>
<path d="M207.488 20.8292C207.205 20.7876 206.918 20.7611 206.631 20.7422C209.891 28.2646 210.117 36.7584 207.261 44.4439C207.548 44.4098 207.832 44.3645 208.115 44.3116C210.879 43.7752 213.364 42.2741 215.127 40.0753C216.89 37.8766 217.816 35.1229 217.741 32.3045C217.666 29.4861 216.594 26.7858 214.716 24.6844C212.839 22.5831 210.277 21.2169 207.488 20.8292Z" fill="#3F3D56"/>
<path d="M148.446 20.7422C148.159 20.7611 147.872 20.7876 147.589 20.8291C144.8 21.2169 142.238 22.583 140.361 24.6844C138.483 26.7858 137.411 29.486 137.336 32.3045C137.261 35.1229 138.187 37.8766 139.95 40.0753C141.713 42.2741 144.198 43.7752 146.963 44.3116C147.246 44.3645 147.529 44.4098 147.816 44.4439C144.96 36.7584 145.186 28.2646 148.446 20.7422Z" fill="#3F3D56"/>
<path d="M207.488 20.8291C204.378 13.3909 198.617 7.37565 191.324 3.95197C184.032 0.528297 175.729 -0.0593365 168.028 2.30324C160.326 4.66581 153.778 9.80989 149.653 16.7361C145.529 23.6624 144.123 31.8762 145.71 39.7819C147.296 47.6875 151.761 54.7206 158.238 59.5147C164.714 64.3088 172.739 66.5216 180.754 65.7232C188.769 64.9248 196.201 61.1723 201.607 55.1946C207.013 49.2169 210.007 41.4409 210.006 33.3773C210.004 29.0689 209.149 24.8038 207.488 20.8291ZM207.261 44.4438C204.5 51.8759 199.059 58.004 192.011 61.6219C184.963 65.2397 176.817 66.0854 169.177 63.9924C161.537 61.8993 154.957 57.0192 150.731 50.3126C146.505 43.6059 144.939 35.5585 146.342 27.7542C147.745 19.9499 152.015 12.954 158.312 8.14352C164.609 3.333 172.476 1.05628 180.365 1.76146C188.255 2.46664 195.595 6.10264 200.94 11.9538C206.286 17.805 209.251 25.4476 209.251 33.3773C209.25 37.1552 208.576 40.9026 207.261 44.4438Z" fill="#3F3D56"/>
<path d="M194.15 26.0071H160.927C159.175 26.0071 157.495 26.704 156.256 27.9444C155.017 29.1848 154.321 30.8672 154.321 32.6214C154.321 34.3756 155.017 36.0579 156.256 37.2983C157.495 38.5388 159.175 39.2356 160.927 39.2356H194.15C195.902 39.2356 197.582 38.5388 198.821 37.2983C200.06 36.0579 200.757 34.3756 200.757 32.6214C200.757 30.8672 200.06 29.1848 198.821 27.9444C197.582 26.704 195.902 26.0071 194.15 26.0071Z" fill="#3F3D56"/>
<path d="M177.539 72.3068C168.663 72.3108 160.141 75.7918 153.796 82.0051C147.451 88.2184 143.787 96.6707 143.586 105.554C143.386 114.438 146.666 123.047 152.725 129.54C158.783 136.034 167.139 139.896 176.006 140.301C176.365 140.32 176.727 140.331 177.089 140.331C177.24 140.339 177.388 140.339 177.539 140.339C186.55 140.339 195.192 136.755 201.564 130.376C207.936 123.997 211.516 115.344 211.516 106.323C211.516 97.3012 207.936 88.6491 201.564 82.2699C195.192 75.8906 186.55 72.3068 177.539 72.3068ZM194.788 134.738C189.594 137.913 183.624 139.59 177.539 139.583C177.263 139.583 176.991 139.579 176.716 139.572C176.598 139.572 176.481 139.568 176.365 139.56C168.387 139.283 160.775 136.14 154.921 130.707C149.067 125.274 145.361 117.914 144.48 109.971C143.6 102.028 145.604 94.0331 150.126 87.4476C154.649 80.862 161.387 76.1255 169.11 74.1039C176.833 72.0822 185.025 72.9103 192.188 76.4369C199.352 79.9635 205.008 85.9529 208.124 93.3107C211.24 100.668 211.607 108.903 209.158 116.509C206.71 124.116 201.609 130.586 194.788 134.738Z" fill="#3F3D56"/>
<path d="M201.386 97.9449H186.536C185.502 97.9449 184.509 97.5334 183.778 96.801C183.046 96.0685 182.635 95.0751 182.635 94.0393C182.635 93.0035 183.046 92.01 183.778 91.2776C184.509 90.5451 185.502 90.1337 186.536 90.1337H201.386C202.42 90.1337 203.413 90.5451 204.144 91.2776C204.876 92.01 205.287 93.0035 205.287 94.0393C205.287 95.0751 204.876 96.0685 204.144 96.801C203.413 97.5334 202.42 97.9449 201.386 97.9449Z" fill="#3F3D56"/>
<path d="M187.526 96.0215C188.62 96.0215 189.506 95.134 189.506 94.0393C189.506 92.9446 188.62 92.0571 187.526 92.0571C186.433 92.0571 185.546 92.9446 185.546 94.0393C185.546 95.134 186.433 96.0215 187.526 96.0215Z" fill="#F2F2F2"/>
<path d="M193.961 96.0215C195.055 96.0215 195.941 95.134 195.941 94.0393C195.941 92.9446 195.055 92.0571 193.961 92.0571C192.868 92.0571 191.981 92.9446 191.981 94.0393C191.981 95.134 192.868 96.0215 193.961 96.0215Z" fill="#F2F2F2"/>
<path d="M200.396 96.0215C201.489 96.0215 202.376 95.134 202.376 94.0393C202.376 92.9446 201.489 92.0571 200.396 92.0571C199.302 92.0571 198.416 92.9446 198.416 94.0393C198.416 95.134 199.302 96.0215 200.396 96.0215Z" fill="#6C63FF"/>
<path d="M62.1507 144.265C65.5456 141.393 67.6077 136.856 67.0669 132.44C66.5262 128.023 63.1766 123.963 58.8318 123.025C54.487 122.087 49.5342 124.683 48.2145 128.932C47.4883 120.74 46.6514 112.205 42.3009 105.229C38.3617 98.9118 31.5388 94.3919 24.1444 93.5832C16.75 92.7746 8.96468 95.8287 4.35307 101.672C-0.258548 107.515 -1.38769 116.009 1.84217 122.717C4.22149 127.659 8.60504 131.336 13.1979 134.328C27.8508 143.874 46.0276 147.099 63.3231 144.551L62.1507 144.265Z" fill="#F2F2F2"/>
<path d="M11.6653 95.998C17.7666 100.973 23.3639 106.538 28.3762 112.611C33.3893 118.678 37.8028 125.217 41.5548 132.137C43.6519 136.019 45.5358 140.012 47.1981 144.1C47.537 144.931 46.1884 145.293 45.8532 144.471C42.9089 137.265 39.2663 130.365 34.9775 123.87C30.7096 117.399 25.8246 111.358 20.3914 105.831C17.3183 102.706 14.076 99.7533 10.6791 96.9853C9.9828 96.4177 10.9747 95.435 11.6653 95.998Z" fill="white"/>
<path d="M60.9996 24.9451C67.4632 24.9451 72.703 19.6994 72.703 13.2285C72.703 6.75753 67.4632 1.51181 60.9996 1.51181C54.536 1.51181 49.2963 6.75753 49.2963 13.2285C49.2963 19.6994 54.536 24.9451 60.9996 24.9451Z" fill="#2F2E41"/>
<path d="M104.648 56.1308C104.424 56.4684 104.151 56.7707 103.837 57.0275C103.386 57.4002 102.86 57.6732 102.296 57.8286C101.732 57.9839 101.141 58.0181 100.563 57.929C99.9845 57.8399 99.4314 57.6294 98.9399 57.3114C98.4485 56.9933 98.0297 56.5749 97.711 56.0835C97.6372 55.969 97.5695 55.8507 97.5081 55.7291L79.066 53.9478C77.6105 53.8016 76.2409 53.1895 75.1604 52.2023C74.0799 51.215 73.3462 49.9053 73.0682 48.4675L72.0214 42.9429L79.2188 41.8219L80.5104 46.2472L98.4912 50.669C98.6305 50.5467 98.7781 50.4342 98.9331 50.3326C99.7352 49.8115 100.692 49.5833 101.643 49.6867C102.593 49.7901 103.479 50.2186 104.151 50.9C104.823 51.5814 105.239 52.4738 105.329 53.4268C105.42 54.3797 105.179 55.3348 104.648 56.1308Z" fill="#FFB8B8"/>
<path d="M80.9524 45.5793L72.9126 47.7536C72.4776 47.8707 72.014 47.8103 71.6235 47.5856C71.233 47.361 70.9474 46.9904 70.8295 46.5552L68.0135 36.1191C67.7118 35.0013 67.8343 33.8112 68.3572 32.7783C68.8801 31.7455 69.7664 30.943 70.8454 30.5257C71.9243 30.1084 73.1193 30.1057 74.2 30.5183C75.2808 30.9309 76.1706 31.7294 76.6981 32.7599L82.0214 43.1617C82.1368 43.3873 82.2005 43.6358 82.2077 43.8891C82.2149 44.1424 82.1655 44.3941 82.063 44.6258C81.9605 44.8575 81.8076 45.0634 81.6155 45.2284C81.4234 45.3933 81.1968 45.5132 80.9524 45.5793Z" fill="#2F2E41"/>
<path d="M76.2953 141.406H80.9235L83.1256 123.533L76.2942 123.534L76.2953 141.406Z" fill="#FFB8B8"/>
<path d="M89.85 145.708L75.3036 145.709L75.3033 140.082L84.2295 140.082C85.7201 140.082 87.1496 140.674 88.2037 141.73C89.2577 142.785 89.8499 144.216 89.85 145.708Z" fill="#2F2E41"/>
<path d="M35.0429 136.89L39.3731 138.527L47.7399 122.585L41.3491 120.17L35.0429 136.89Z" fill="#FFB8B8"/>
<path d="M46.2057 145.709L32.597 140.565L34.5822 135.301L42.933 138.457C44.3275 138.985 45.4557 140.045 46.0694 141.405C46.6832 142.764 46.7322 144.313 46.2057 145.709Z" fill="#2F2E41"/>
<path d="M76.1491 137.255C75.7903 137.254 75.4409 137.14 75.1509 136.929C74.8609 136.717 74.6453 136.419 74.5349 136.078L62.7302 99.5804C62.6952 99.4723 62.6285 99.3771 62.5388 99.3073C62.4491 99.2376 62.3405 99.1964 62.2272 99.1892C62.1138 99.182 62.0009 99.2091 61.9031 99.2669C61.8054 99.3248 61.7272 99.4107 61.6788 99.5136L45.3188 134.362C45.1416 134.738 44.8327 135.037 44.4503 135.201C44.068 135.365 43.6389 135.383 43.2442 135.252L36.801 133.102C36.3917 132.964 36.0499 132.676 35.8447 132.296C35.6395 131.916 35.5862 131.472 35.6957 131.054L45.7169 93.0514C46.7655 89.026 47.523 84.9301 47.9834 80.7955C48.6862 73.9872 51.8745 67.6781 56.9371 63.0781C59.1476 61.0506 60.5846 58.3162 61.0016 55.344L61.0286 55.1539L75.7045 57.4737L85.0006 133.416C85.0486 133.822 84.9494 134.232 84.721 134.572C84.4926 134.911 84.1501 135.157 83.7559 135.265L76.5927 137.196C76.4481 137.235 76.2989 137.255 76.1491 137.255Z" fill="#2F2E41"/>
<path d="M65.6489 24.8893C70.7699 24.8893 74.9213 20.7332 74.9213 15.6063C74.9213 10.4795 70.7699 6.32333 65.6489 6.32333C60.5278 6.32333 56.3764 10.4795 56.3764 15.6063C56.3764 20.7332 60.5278 24.8893 65.6489 24.8893Z" fill="#FFB8B8"/>
<path d="M74.7925 59.0929C74.7634 59.0929 74.7344 59.0922 74.7051 59.0907L60.1567 58.3625C59.7507 58.3442 59.3648 58.1798 59.07 57.8997C58.7751 57.6196 58.591 57.2424 58.5515 56.8374L56.564 37.4376C56.4185 36.0169 56.6223 34.5822 57.1575 33.2584C57.6927 31.9346 58.5431 30.7619 59.6347 29.8425C60.7263 28.9232 62.0259 28.285 63.4203 27.9836C64.8147 27.6822 66.2615 27.7268 67.6347 28.1134C68.7724 28.4254 69.8327 28.9714 70.7478 29.7166C80.9818 38.1308 77.682 53.376 76.4268 57.848C76.3284 58.2062 76.1152 58.5221 75.8199 58.7471C75.5245 58.972 75.1636 59.0935 74.7925 59.0929Z" fill="#6C63FF"/>
<path d="M62.1359 72.1195C61.7308 72.1196 61.328 72.0592 60.9408 71.9401C60.3807 71.7702 59.8629 71.4838 59.4211 71.0995C58.9793 70.7153 58.6237 70.2419 58.3774 69.7104C58.1311 69.1789 57.9998 68.6014 57.9921 68.0155C57.9843 67.4297 58.1003 66.8489 58.3324 66.311C58.3867 66.1861 58.4476 66.0641 58.5148 65.9456L49.7806 49.5872C49.0959 48.2931 48.8463 46.8124 49.0688 45.3649C49.2913 43.9175 49.9741 42.5805 51.0158 41.5523L55.0303 37.6196L59.9493 42.9977L56.9846 46.5255L63.2675 63.9621C63.4463 64.0104 63.6216 64.0712 63.792 64.1441C64.6697 64.524 65.3895 65.1953 65.8301 66.0449C66.2707 66.8945 66.405 67.8702 66.2104 68.8075C66.0158 69.7447 65.5042 70.586 64.7619 71.1894C64.0196 71.7928 63.0921 72.1213 62.1359 72.1195Z" fill="#FFB8B8"/>
<path d="M57.785 46.524L51.5233 41.0272C51.185 40.7295 50.9784 40.3096 50.9489 39.8597C50.9194 39.4097 51.0694 38.9664 51.366 38.627L58.485 30.4991C59.2476 29.6284 60.3051 29.0713 61.4537 28.935C62.6023 28.7987 63.7606 29.093 64.7052 29.7612C65.6499 30.4293 66.3141 31.4239 66.5696 32.5532C66.8252 33.6825 66.654 34.8666 66.0892 35.877L60.3876 46.0759C60.264 46.2971 60.0926 46.4878 59.8859 46.6341C59.6792 46.7804 59.4425 46.8786 59.1931 46.9215C58.9436 46.9645 58.6877 46.9511 58.4441 46.8823C58.2005 46.8136 57.9753 46.6911 57.785 46.524Z" fill="#2F2E41"/>
<path d="M59.682 24.6236C60.528 24.9239 61.5652 25.1887 62.2309 24.5658C62.8809 23.9578 62.7625 22.8458 62.3796 22.0265C61.9967 21.2073 61.4029 20.4783 61.2209 19.5866C60.96 18.3087 61.6346 16.9811 62.5976 16.148C63.5606 15.3148 64.7728 14.8772 65.9562 14.456L72.4471 12.146C74.0538 11.5742 75.7852 10.9026 76.6843 9.39784C77.9852 7.22058 76.7959 4.10831 74.6619 2.83784C72.528 1.56736 69.8325 1.80405 67.5302 2.69738C66.2568 3.19147 65.0454 3.87232 63.7285 4.22013C61.1295 4.90656 58.1744 4.29076 55.8905 5.75784C53.9024 7.03492 52.9802 9.64073 53.0472 12.0789C53.1141 14.5171 54.0109 16.8391 54.9567 19.0689C55.5194 20.3955 56.1205 21.7374 57.0736 22.7925C58.0267 23.8476 59.4041 24.5857 60.7799 24.3916L59.682 24.6236Z" fill="#2F2E41"/>
<path d="M51.1839 15.1183C55.354 15.1183 58.7345 11.7339 58.7345 7.55913C58.7345 3.38434 55.354 0 51.1839 0C47.0138 0 43.6333 3.38434 43.6333 7.55913C43.6333 11.7339 47.0138 15.1183 51.1839 15.1183Z" fill="#2F2E41"/>
<path d="M112.423 51.1943L112.289 51.1759L112.794 47.5011C112.871 46.937 112.722 46.3653 112.378 45.9116C112.035 45.4578 111.525 45.1594 110.961 45.0818L103.185 44.0116C102.621 43.934 102.05 44.0838 101.597 44.4278C101.144 44.7718 100.845 45.282 100.768 45.8461L97.9998 66.0065C97.9223 66.5706 98.0719 67.1424 98.4155 67.5961C98.7592 68.0498 99.2688 68.3483 99.8323 68.4258L107.609 69.4961C108.173 69.5736 108.744 69.4239 109.197 69.0798C109.65 68.7358 109.948 68.2256 110.026 67.6615L111.93 53.7917L112.064 53.8101L112.423 51.1943Z" fill="#3F3D56"/>
<path d="M110.717 46.1599L109.749 46.0267C109.778 46.1421 109.779 46.263 109.751 46.3788C109.723 46.4946 109.667 46.6016 109.587 46.6906C109.508 46.7795 109.408 46.8475 109.297 46.8887C109.185 46.9299 109.065 46.9429 108.947 46.9267L104.697 46.3419C104.579 46.3256 104.467 46.2806 104.371 46.2108C104.274 46.141 104.197 46.0485 104.144 45.9414C104.092 45.8344 104.067 45.7162 104.071 45.5971C104.075 45.478 104.108 45.3618 104.168 45.2586L103.263 45.1342C103.065 45.1068 102.862 45.1189 102.668 45.1698C102.474 45.2206 102.292 45.3093 102.132 45.4306C101.972 45.552 101.838 45.7036 101.737 45.877C101.636 46.0503 101.569 46.242 101.542 46.4409L98.9054 65.6427C98.8502 66.0445 98.9568 66.4518 99.2015 66.775C99.4463 67.0982 99.8093 67.3108 100.211 67.366L107.664 68.3918C108.066 68.447 108.473 68.3404 108.795 68.0953C109.118 67.8503 109.331 67.4868 109.386 67.085L112.022 47.8832C112.077 47.4814 111.971 47.0741 111.726 46.7509C111.481 46.4277 111.118 46.2152 110.717 46.1599Z" fill="white"/>
<path d="M105.431 62.102C107.724 62.102 109.584 60.2406 109.584 57.9444C109.584 55.6483 107.724 53.7869 105.431 53.7869C103.137 53.7869 101.278 55.6483 101.278 57.9444C101.278 60.2406 103.137 62.102 105.431 62.102Z" fill="#6C63FF"/>
<path d="M105.019 59.5305C104.926 59.5306 104.835 59.5004 104.76 59.4443L104.755 59.4408L103.779 58.6927C103.734 58.6582 103.696 58.6149 103.667 58.5656C103.638 58.5162 103.62 58.4616 103.612 58.405C103.604 58.3483 103.608 58.2907 103.623 58.2355C103.637 58.1803 103.663 58.1285 103.698 58.0831C103.732 58.0377 103.776 57.9997 103.825 57.9711C103.874 57.9426 103.929 57.9241 103.986 57.9167C104.042 57.9093 104.1 57.9132 104.155 57.9281C104.21 57.943 104.262 57.9687 104.307 58.0036L104.939 58.4889L106.433 56.5385C106.467 56.4932 106.511 56.4553 106.56 56.4268C106.609 56.3982 106.664 56.3797 106.72 56.3723C106.777 56.3648 106.834 56.3686 106.889 56.3833C106.944 56.398 106.996 56.4235 107.041 56.4581C107.132 56.5283 107.192 56.6319 107.207 56.746C107.222 56.8601 107.191 56.9755 107.121 57.0669L105.364 59.3611C105.323 59.4139 105.271 59.4567 105.211 59.4861C105.152 59.5155 105.086 59.5306 105.019 59.5305Z" fill="white"/>
<path d="M319.55 146H2.69367C2.57468 146 2.46068 145.952 2.37666 145.868C2.29264 145.783 2.24545 145.669 2.24545 145.55C2.24545 145.431 2.29264 145.317 2.37666 145.232C2.46068 145.148 2.57468 145.1 2.69367 145.1H319.55C319.67 145.1 319.784 145.147 319.868 145.232C319.953 145.316 320 145.431 320 145.55C320 145.669 319.953 145.784 319.868 145.868C319.784 145.953 319.67 146 319.55 146Z" fill="#CCCCCC"/>
</g>
<defs>
<clipPath id="clip0_2_15">
<rect width="320" height="146" fill="white"/>
</clipPath>
</defs>
</svg>
